<svg xmlns="http://www.w3.org/2000/svg" viewBox="0 0 32.58 31.77">
  <path d="M16.29,0a16.3,16.3,0,0,0-5.15,31.74c.81.15,1.1-.36,1.1-.8V27.9c-4.47,1-5.4-2.15-5.4-2.15A4.24,4.24,0,0,0,4,23.42c-1.45-.99.11-.99.11-.99a3.37,3.37,0,0,1,2.45,1.64,3.44,3.44,0,0,0,4.68,1.34,3.39,3.39,0,0,1,1-2.11C9,23.24,5.5,21.32,5.5,15.38a5.4,5.4,0,0,1,1.44-3.75A4.94,4.94,0,0,1,7.5,9.88s1.21-.39,3.94,1.45a13.47,13.47,0,0,1,7,0C24.88,9.49,26.09,9.88,26.09,9.88a4.94,4.94,0,0,1,.07,3.75,5.39,5.39,0,0,1,1.43,3.74c0,5.01-3.48,7.25-6.77,7.62a3.56,3.56,0,0,1,1.07,2.76V31.74c0,.45.29,1,.11.8A16.29,16.29,0,0,0,16.29,0Z" fill="#fff"/>
</svg>